PathFileType	4	(X/Y/Z)	c:/Users/goper/Files/vsCode/490R/osim_files/A06/A06_SSWS_04.trc
DataRate	CameraRate	NumFrames	NumMarkers	Units                	OrigDataRate	OrigDataStartFrame	OrigNumFrames
120.00	120.00	10	36	mm	120.0	817	1307
                Frame#	Time	LPSIS			LASIS			LTH1			LTH2			LTH3			LTH4			LLFE			LMFE			LSH1			LSH2			LSH3			LSH4			LLMAL			LMMAL			LCAL			LMTP5			LTOE			LMTP1			RPSIS			RASIS			RTH1			RTH2			RTH3			RTH4			RLFE			RMFE			RSH1			RSH2			RSH3			RSH4			RLMAL			RMMAL			RCAL			RMTP1			RTOE			RMTP5		
		X1	Y1	Z1	X2	Y2	Z2	X3	Y3	Z3	X4	Y4	Z4	X5	Y5	Z5	X6	Y6	Z6	X7	Y7	Z7	X8	Y8	Z8	X9	Y9	Z9	X10	Y10	Z10	X11	Y11	Z11	X12	Y12	Z12	X13	Y13	Z13	X14	Y14	Z14	X15	Y15	Z15	X16	Y16	Z16	X17	Y17	Z17	X18	Y18	Z18	X19	Y19	Z19	X20	Y20	Z20	X21	Y21	Z21	X22	Y22	Z22	X23	Y23	Z23	X24	Y24	Z24	X25	Y25	Z25	X26	Y26	Z26	X27	Y27	Z27	X28	Y28	Z28	X29	Y29	Z29	X30	Y30	Z30	X31	Y31	Z31	X32	Y32	Z32	X33	Y33	Z33	X34	Y34	Z34	X35	Y35	Z35	X36	Y36	Z36

817	6.80000	-2969.56250	989.34619	362.01984	-3166.99585	937.59991	417.47107	-3156.43628	583.16943	453.61273	-3174.93896	543.95764	446.08331	-3217.78833	599.66418	440.11703	-3224.82056	557.66248	435.81522	-3213.31616	479.53470	427.98087	-3209.16455	477.71323	321.79437	-3157.47852	381.17422	444.82596	-3163.45996	335.41208	446.30151	-3216.92383	384.48828	434.76401	-3216.79834	341.80490	437.41116	-3166.30005	87.32922	397.50397	-3186.48804	104.77838	312.11731	-3102.52930	80.51049	342.00763	-3284.09106	44.75947	408.79068	-3322.87939	67.25002	355.31985	-3298.72021	60.20737	315.58395	-2962.75537	1002.51288	232.24968	-3134.61011	984.11658	163.88493	-3033.06030	580.26416	124.93564	-3036.83081	537.80450	121.37234	-3095.53418	579.17590	130.98862	-3091.35645	535.51550	126.34849	-3057.26807	423.59464	144.85876	-3060.79663	421.52240	234.52466	-2916.52661	351.01126	158.38789	-2879.03247	322.62088	160.90443	-2950.60034	301.52600	167.89105	-2909.58032	277.97339	165.18517	-2763.99097	244.98314	151.07779	-2777.22705	234.67441	235.07008	-2714.66089	276.38742	202.44673	-2818.10254	101.47434	225.32480	-2836.18677	96.49886	185.44354	-2808.71338	111.06726	137.48964
818	6.80833	-2977.34644	991.16217	363.35858	-3175.08911	939.03467	417.63470	-3159.75562	583.85333	454.65591	-3177.36963	544.30054	447.21390	-3221.31641	599.49451	441.55066	-3227.72705	557.39996	437.24933	-3215.20703	479.46027	429.22791	-3211.65771	476.69891	323.74615	-3158.64502	381.36899	445.41422	-3165.03589	335.45840	446.64337	-3218.62012	384.14691	436.05435	-3217.46753	341.89105	438.13681	-3166.32129	87.26165	397.66379	-3185.03516	103.62019	313.54819	-3103.80005	80.54255	341.92413	-3284.13599	44.60143	408.88052	-3322.93726	67.15600	355.49490	-3298.81152	60.30324	315.77573	-2969.63281	1004.71924	233.54410	-3141.88477	986.34656	164.11891	-3048.40063	581.80524	125.33950	-3053.79565	539.26025	122.06985	-3110.87939	582.52240	131.76587	-3108.01636	538.72162	127.15543	-3076.85254	425.99924	145.80519	-3080.09644	424.08856	235.47523	-2936.36938	353.64627	158.97018	-2898.65991	325.31079	161.30321	-2969.78271	303.99014	168.38933	-2929.28369	280.59058	165.98309	-2784.10669	247.24373	150.84885	-2796.77954	237.77605	235.43109	-2734.47705	279.42319	202.07570	-2837.63696	104.33462	225.63914	-2855.25488	98.85262	186.02672	-2828.20508	113.75261	138.21875
819	6.81667	-2985.12183	992.96906	364.62427	-3183.06641	940.45404	417.95316	-3162.82202	584.38043	455.64709	-3180.04468	544.72583	448.34204	-3224.66333	599.23798	442.84222	-3231.04468	557.08234	438.79282	-3216.87280	479.41275	430.32886	-3215.15576	476.52960	325.03146	-3159.78735	381.73569	445.97336	-3166.02393	335.65799	447.16104	-3219.57642	384.27621	436.70691	-3218.91724	341.69492	439.24231	-3167.30493	88.25921	397.12698	-3188.07715	106.76851	313.58636	-3102.79785	80.93880	342.19955	-3284.23022	44.50763	408.95251	-3322.99146	67.09078	355.66696	-3298.87305	60.37706	315.95184	-2977.29541	1006.92230	234.80609	-3149.31079	988.48370	164.68011	-3063.61890	583.60339	125.74436	-3070.12109	541.20740	122.66570	-3125.89697	585.97742	132.56636	-3124.45312	542.21393	128.03517	-3096.35815	428.67950	146.80783	-3098.98389	427.19702	236.66454	-2956.14136	355.95163	159.53307	-2918.34790	327.50110	161.67538	-2990.15625	306.54330	169.49083	-2949.26196	282.88382	166.86981	-2804.00244	248.33476	151.00325	-2816.48364	239.77582	235.70158	-2753.84375	281.22580	201.97154	-2857.94214	106.44731	226.36472	-2875.85303	101.38428	187.22264	-2848.69995	115.63329	138.96516
820	6.82500	-2992.80762	994.62360	365.62534	-3190.75464	941.78876	418.40082	-3165.77441	584.77148	456.52707	-3182.30835	544.94836	449.22375	-3227.77173	598.91339	444.09015	-3232.74976	556.86511	439.61139	-3218.53662	479.35425	431.28726	-3218.50781	476.41724	326.02097	-3161.04175	381.98474	446.45221	-3166.75952	335.88754	447.59390	-3220.77832	384.25122	437.50919	-3219.38379	341.73108	439.73700	-3167.43945	88.32964	397.38242	-3187.08911	106.57526	315.29773	-3103.03931	79.61517	342.99445	-3284.31689	44.39791	409.00494	-3323.04932	66.99131	355.79630	-3298.89771	60.41707	316.08090	-2985.75586	1009.03229	236.10287	-3156.94165	990.72211	165.46796	-3078.82959	585.66095	126.10760	-3086.06934	543.40704	123.21965	-3141.48804	589.75775	132.50110	-3140.37061	545.72589	128.84021	-3115.49780	431.60150	147.85738	-3117.65234	430.39703	237.73376	-2974.14087	358.20993	160.09032	-2938.25928	329.02969	162.21056	-3009.85645	308.36368	170.75429	-2969.29468	284.70505	167.87335	-2824.67944	249.90077	151.30510	-2836.71558	240.85088	235.93404	-2774.07324	281.74115	201.74521	-2879.17822	107.88546	227.14995	-2897.31372	102.73798	188.16434	-2870.27173	116.67323	139.67436
821	6.83333	-3000.55859	996.19910	366.59885	-3198.43921	943.19684	419.03128	-3168.59839	585.17609	457.23990	-3184.56909	545.28790	449.96848	-3230.80054	598.71600	445.16141	-3235.66602	556.41931	440.96979	-3220.06006	479.24384	432.09290	-3221.15234	476.27457	326.78564	-3162.03149	382.25009	446.83719	-3167.66260	336.13193	447.97943	-3221.87378	384.19659	438.17776	-3220.71045	341.57669	440.59778	-3166.98267	88.64558	397.28650	-3187.30542	106.87095	315.64740	-3103.09863	79.81225	343.02402	-3284.28369	44.23437	409.08896	-3323.10498	66.96175	355.93503	-3298.90088	60.47314	316.18793	-2992.75513	1011.19598	237.03616	-3164.47070	992.79175	166.46082	-3094.47803	588.48645	126.55470	-3101.59082	545.58264	123.82488	-3155.30444	593.22485	134.05875	-3156.08154	549.26117	129.70297	-3134.01221	434.63699	148.81752	-3135.70239	433.95227	238.57599	-2994.43286	359.40826	160.79486	-2957.92358	330.00269	162.71577	-3029.83521	310.21448	171.62323	-2989.30566	286.24130	168.85788	-2845.72095	249.00760	152.06459	-2857.02808	240.71489	236.17099	-2794.27075	280.88235	201.68353	-2901.03784	108.15268	227.89873	-2919.51685	102.88589	188.69247	-2892.52466	116.82271	140.38960
822	6.84167	-3007.98975	997.58856	367.42035	-3205.93970	944.49194	419.82382	-3171.38794	585.60266	457.72461	-3186.45337	545.97614	451.18619	-3233.82056	598.31732	446.00980	-3238.01489	555.98517	441.83069	-3221.73730	479.17535	432.75885	-3223.33643	476.23135	327.20319	-3163.05151	382.58154	447.17197	-3168.34326	336.33377	448.23468	-3222.91431	384.20401	438.69473	-3221.14575	341.76987	440.86694	-3167.06689	88.64452	397.45822	-3187.50879	107.12696	315.96381	-3103.49780	80.78841	342.73553	-3284.27856	44.09383	409.15961	-3323.16821	66.91233	356.07117	-3298.93091	60.53577	316.30905	-3000.54541	1013.11755	237.97270	-3172.05322	994.78949	167.67502	-3108.97485	590.15759	126.67129	-3117.17212	547.77008	124.52558	-3170.11938	596.90063	134.02623	-3171.37158	552.87244	130.54140	-3152.02954	437.70163	149.83968	-3153.39111	437.11893	239.59966	-3013.75562	360.33066	161.37950	-2977.59985	330.46274	163.27568	-3049.78857	311.65457	172.43748	-3009.47070	287.22519	169.78343	-2866.35913	248.08434	151.91917	-2877.55469	239.59238	236.35698	-2814.54663	278.78937	201.66582	-2924.10938	107.82948	228.65843	-2942.67871	103.20062	189.83545	-2915.64990	116.16783	141.06650
823	6.85000	-3015.60278	998.92023	368.10117	-3213.37012	945.72717	420.75122	-3174.34668	586.04767	458.09323	-3189.16162	545.83850	451.01010	-3236.85303	598.02380	446.70654	-3240.60669	555.63086	442.53467	-3223.40894	479.19455	433.24902	-3226.50269	476.87558	326.63345	-3163.98169	382.91370	447.34949	-3169.09961	336.62790	448.46695	-3223.89136	384.14514	439.18707	-3221.92896	341.75562	441.29654	-3167.41138	88.69518	397.75620	-3187.43164	105.87214	314.15784	-3103.57007	80.94823	342.81189	-3284.33105	44.02045	409.21771	-3323.19629	66.85471	356.20944	-3298.94946	60.58204	316.40472	-3008.07178	1015.01562	238.79959	-3179.41284	996.48566	169.02690	-3123.32739	592.31531	127.07401	-3132.24536	550.04950	125.17411	-3183.36597	600.23657	135.62569	-3186.21069	556.33936	131.36732	-3169.61646	440.94257	150.77003	-3170.54419	440.56430	240.52844	-3034.06836	360.67130	162.20103	-2997.31274	330.21204	163.79500	-3069.74731	312.93314	173.17560	-3029.40723	287.96506	170.63004	-2888.53442	246.43254	153.00809	-2899.84717	237.36282	236.15665	-2835.32886	275.36935	201.72731	-2947.88208	106.72698	229.39943	-2966.66675	102.31001	190.67511	-2939.63989	114.63671	141.68698
824	6.85833	-3023.12329	1000.08887	368.81763	-3221.41943	947.21606	421.73074	-3177.28638	586.45874	458.25784	-3191.25781	546.66669	451.72208	-3239.87183	597.65277	447.19812	-3243.09082	555.28931	443.02139	-3225.09082	479.17819	433.56711	-3228.16382	476.64600	326.70950	-3164.87085	383.19559	447.45505	-3169.74097	336.90561	448.58127	-3224.88940	384.21313	439.58618	-3222.64551	341.81586	441.70871	-3167.72656	88.86991	397.65668	-3185.89966	105.78060	314.41464	-3103.62183	81.13071	342.89197	-3284.37817	43.96836	409.25961	-3323.20361	66.76761	356.32178	-3298.92847	60.57457	316.49454	-3015.64697	1016.68567	239.49776	-3186.45117	998.03485	170.63702	-3137.06177	594.33600	127.54124	-3146.89404	552.33862	125.79742	-3197.63916	603.73102	136.20135	-3200.87500	559.64606	132.06909	-3186.64722	444.08276	151.75349	-3186.89697	443.76166	241.48914	-3052.34058	360.89777	162.89169	-3017.13110	329.38147	164.22485	-3089.73120	313.82681	173.92296	-3049.35596	288.18365	171.33435	-2910.11987	243.05186	153.33456	-2921.58569	234.36041	236.51111	-2855.69067	271.09030	201.64781	-2972.36279	104.94967	230.07568	-2992.02222	101.58293	191.13594	-2964.30493	112.48219	142.23788
825	6.86667	-3030.71021	1001.06683	369.29868	-3227.13477	947.84296	422.67981	-3181.04395	587.01813	457.93176	-3193.90259	546.96277	451.88263	-3243.06177	597.35883	447.54495	-3245.81128	554.95746	443.34534	-3226.73853	479.19791	433.86246	-3229.87402	476.43018	326.79163	-3165.70972	383.51617	447.45822	-3170.36035	337.21649	448.63873	-3225.63208	384.15588	439.84106	-3223.31177	341.85873	441.98468	-3168.09912	88.63477	397.65182	-3186.06787	105.94762	314.65671	-3103.65649	81.27898	342.92746	-3284.36768	43.84908	409.31732	-3323.23389	66.68884	356.42056	-3298.96216	60.59535	316.57468	-3023.05200	1018.20752	240.11684	-3194.10986	999.66656	171.80803	-3150.62891	596.19830	128.02727	-3162.02539	554.08789	126.64817	-3210.34692	606.73615	136.98145	-3214.57568	562.87427	132.84242	-3203.72656	447.20483	152.68398	-3203.75220	447.00537	242.45950	-3071.99023	360.38748	163.35960	-3036.54004	328.25153	164.80580	-3109.72754	314.53247	174.61115	-3069.44214	288.12750	171.84822	-2932.18311	239.04469	153.48212	-2943.21582	230.86520	236.72731	-2877.60742	265.71704	201.19350	-2997.68335	102.69925	230.71965	-3017.56958	98.03101	191.49937	-2989.61621	109.85008	142.86263
826	6.87500	-3037.92017	1002.08087	369.82797	-3234.38525	948.77576	423.76556	-3184.15796	587.99347	457.87234	-3196.35522	547.26050	451.89447	-3246.27344	597.06702	447.71655	-3248.37622	554.57404	443.51553	-3228.40796	479.12668	433.92886	-3231.75610	476.18362	326.73126	-3166.67456	383.91641	447.45386	-3171.11060	337.53989	448.65485	-3227.06348	384.03659	440.34189	-3224.09961	341.92792	442.20062	-3167.88428	87.43330	398.54276	-3186.26929	106.13388	314.86328	-3103.09180	82.00327	342.72870	-3284.28857	43.68245	409.37537	-3323.28149	66.62499	356.52823	-3299.00684	60.62505	316.65182	-3030.58496	1019.59552	240.68190	-3201.71411	1001.13336	172.96561	-3163.90308	597.96216	128.50935	-3176.00000	556.30682	127.24792	-3222.86230	610.08032	137.97009	-3228.80737	566.39099	133.82095	-3219.63159	450.30035	153.55208	-3219.71533	450.23157	243.28737	-3091.01514	359.79669	163.90662	-3056.68994	326.59607	165.15671	-3129.72583	315.13303	175.27434	-3090.03516	287.65805	172.23781	-2954.28467	234.79750	153.40527	-2965.42212	226.78918	236.98898	-2898.83740	259.87213	201.09970	-3023.55615	100.34105	231.26271	-3042.93018	97.60798	192.77353	-3015.56323	107.08100	143.35948
